<svg fill="#FA5252" xmlns="http://www.w3.org/2000/svg"  viewBox="0 0 64 64" width="64px" height="64px"><path d="M 8 8 L 8 56 L 56 56 L 56 8 L 8 8 z M 28.115234 14.5 C 35.623234 14.5 41.732422 20.607234 41.732422 28.115234 C 41.732422 31.286234 40.633594 34.202531 38.808594 36.519531 L 49.5 45.5 C 49.5 45.5 50.409844 47.264484 48.964844 48.771484 C 47.529844 50.266484 45.613281 49.466797 45.613281 49.466797 L 36.53125 38.798828 C 34.21225 40.629828 31.292234 41.732422 28.115234 41.732422 C 20.607234 41.732422 14.5 35.623234 14.5 28.115234 C 14.5 20.607234 20.607234 14.5 28.115234 14.5 z M 28.115234 17.5 A 10.616 10.616 0 0 0 28.115234 38.732422 A 10.616 10.616 0 0 0 28.115234 17.5 z"/></svg>